<mxfile host="app.diagrams.net" modified="2024-02-16T12:33:35.034Z" agent="Mozilla/5.0 (Linux; Android 9; SAMSUNG SM-G950F) AppleWebKit/537.36 (KHTML, like Gecko) SamsungBrowser/23.0 Chrome/115.0.0.0 Mobile Safari/537.36" version="23.1.5" etag="0I2XpGqVjvcanABEkGPm" type="github">
  <diagram name="Page-1" id="F9tQk3wNgaZIFHmKF3rv">
    <mxGraphModel>
      <root>
        <mxCell id="0" />
        <mxCell id="1" parent="0" />
      </root>
    </mxGraphModel>
  </diagram>
</mxfile>
